<svg xmlns="http://www.w3.org/2000/svg" id="Layer_1" width="540" height="510" viewBox="0 0 540 510"><defs><style>.cls-1{letter-spacing:-.02em;}.cls-2{font-size:12px;}.cls-2,.cls-3,.cls-4{fill:#333e48;}.cls-2,.cls-4{font-family:Lato-Medium, Lato;font-weight:500;}.cls-5{fill:#0091bd;}.cls-6{letter-spacing:-.02em;}.cls-7{letter-spacing:0em;}.cls-8{letter-spacing:0em;}.cls-9{letter-spacing:0em;}.cls-10{letter-spacing:-.03em;}.cls-11{letter-spacing:-.11em;}.cls-12{letter-spacing:0em;}.cls-4{font-size:18px;}.cls-13{stroke:#0091bd;}.cls-13,.cls-14{fill:none;stroke-miterlimit:10;}.cls-14{stroke:#333e48;}.cls-15{letter-spacing:-.03em;}</style></defs><g><line class="cls-14" x1="210" y1="90" x2="210" y2="459.26"/><polygon class="cls-3" points="206.01 458.09 210 465 213.99 458.09 206.01 458.09"/></g><rect class="cls-14" x="135.65" y="30" width="150" height="60"/><text class="cls-4" transform="translate(177.2 55.84)"><tspan x="0" y="0">Program </tspan><tspan x="16.15" y="21.6">flow</tspan></text><line class="cls-14" x1="195.65" y1="180" x2="225.65" y2="180"/><line class="cls-14" x1="195.65" y1="195" x2="225.65" y2="195"/><line class="cls-14" x1="195.65" y1="210" x2="225.65" y2="210"/><line class="cls-14" x1="195.65" y1="225" x2="225.65" y2="225"/><line class="cls-14" x1="195.65" y1="240" x2="225.65" y2="240"/><line class="cls-14" x1="195.65" y1="255" x2="225.65" y2="255"/><line class="cls-14" x1="195.65" y1="300" x2="225.65" y2="300"/><line class="cls-14" x1="195.65" y1="315" x2="225.65" y2="315"/><line class="cls-14" x1="195.65" y1="330" x2="225.65" y2="330"/><line class="cls-14" x1="195.65" y1="270" x2="225.65" y2="270"/><line class="cls-14" x1="195.65" y1="285" x2="225.65" y2="285"/><line class="cls-14" x1="195.65" y1="345" x2="225.65" y2="345"/><line class="cls-14" x1="195.65" y1="360" x2="225.65" y2="360"/><line class="cls-14" x1="195.65" y1="375" x2="225.65" y2="375"/><line class="cls-14" x1="195.65" y1="389.65" x2="225.65" y2="389.65"/><line class="cls-14" x1="195.65" y1="165" x2="225.65" y2="165"/><line class="cls-14" x1="195.65" y1="150" x2="225.65" y2="150"/><line class="cls-14" x1="195.65" y1="135" x2="225.65" y2="135"/><rect class="cls-14" x="30" y="240.27" width="150" height="60"/><text class="cls-4" transform="translate(65.87 266.11)"><tspan x="0" y="0">Exception</tspan><tspan x="13.26" y="21.6">occurs</tspan></text><line class="cls-14" x1="435" y1="240" x2="435" y2="60"/><text class="cls-2" transform="translate(285 180) rotate(-43.17)"><tspan class="cls-11" x="0" y="0">T</tspan><tspan x="5.76" y="0">a</tspan><tspan class="cls-10" x="11.75" y="0">k</tspan><tspan x="17.59" y="0">e E</tspan><tspan class="cls-6" x="33.9" y="0">x</tspan><tspan class="cls-8" x="39.68" y="0">c</tspan><tspan class="cls-9" x="45.31" y="0">e</tspan><tspan class="cls-7" x="51.67" y="0">p</tspan><tspan x="58.34" y="0">tion</tspan></text><text class="cls-2" transform="translate(270.65 360) rotate(43.14)"><tspan class="cls-15" x="0" y="0">R</tspan><tspan class="cls-12" x="7.17" y="0">e</tspan><tspan class="cls-9" x="13.48" y="0">turn f</tspan><tspan class="cls-1" x="42.9" y="0">r</tspan><tspan x="47.07" y="0">om E</tspan><tspan class="cls-6" x="73.77" y="0">x</tspan><tspan class="cls-8" x="79.55" y="0">c</tspan><tspan class="cls-9" x="85.18" y="0">e</tspan><tspan class="cls-7" x="91.54" y="0">p</tspan><tspan x="98.21" y="0">tion</tspan></text><g><line class="cls-14" x1="435" y1="300" x2="435" y2="474.26"/><polygon class="cls-3" points="431.01 473.09 435 480 438.99 473.09 431.01 473.09"/></g><rect class="cls-14" x="360" y="240" width="150" height="60"/><text class="cls-4" transform="translate(393.6 265.84)"><tspan x="0" y="0" xml:space="preserve"> Exception</tspan><tspan x="7.75" y="21.6" xml:space="preserve"> Handler </tspan></text><g><line class="cls-13" x1="211.73" y1="268.39" x2="428.84" y2="68.1"/><polygon class="cls-5" points="430.69 71.82 433.06 64.2 425.28 65.96 430.69 71.82"/></g><line class="cls-14" x1="195" y1="405" x2="225" y2="405"/><line class="cls-14" x1="195" y1="420" x2="225" y2="420"/><line class="cls-14" x1="195" y1="120" x2="225" y2="120"/><line class="cls-14" x1="195" y1="105" x2="225" y2="105"/><g><line class="cls-13" x1="430.15" y1="472.79" x2="216.13" y2="274.79"/><polygon class="cls-5" points="219.69 272.66 211.91 270.9 214.27 278.52 219.69 272.66"/></g></svg>