<svg xmlns="http://www.w3.org/2000/svg" id="Layer_1" width="720" height="195" viewBox="0 0 720 195"><defs><style>.cls-1{fill:#0091bd;}.cls-2{stroke:#333e48;stroke-dasharray:0 0 5 3;}.cls-2,.cls-3{fill:none;stroke-miterlimit:10;}.cls-4{letter-spacing:-.02em;}.cls-5{letter-spacing:0em;}.cls-6{fill:#fff;}.cls-6,.cls-7{font-family:Lato-Medium, Lato;font-size:18px;font-weight:500;}.cls-7{fill:#333e48;}.cls-8{letter-spacing:0em;}.cls-3{stroke:#002b49;}</style></defs><rect class="cls-1" x="90" y="105" width="285.33" height="60"/><text class="cls-6" transform="translate(163.7 141.64)"><tspan x="0" y="0">A</tspan><tspan class="cls-5" x="12.27" y="0">A</tspan><tspan class="cls-4" x="24.5" y="0">r</tspan><tspan x="30.75" y="0">ch64 </tspan><tspan class="cls-8" x="74.86" y="0">R</tspan><tspan x="86.08" y="0">ich OS</tspan></text><text class="cls-7" transform="translate(30.62 141.64)"><tspan x="0" y="0">EL1</tspan></text><text class="cls-7" transform="translate(29.95 66.64)"><tspan x="0" y="0">EL0</tspan></text><rect class="cls-1" x="240.67" y="30" width="135" height="60"/><rect class="cls-1" x="90" y="30" width="135" height="60"/><text class="cls-6" transform="translate(122.34 55.84)"><tspan x="0" y="0">A</tspan><tspan class="cls-5" x="12.27" y="0">A</tspan><tspan class="cls-4" x="24.5" y="0">r</tspan><tspan x="30.75" y="0">ch32 </tspan><tspan class="cls-5" x="18.92" y="21.6">A</tspan><tspan x="31.15" y="21.6">pp</tspan></text><line class="cls-2" x1="390.67" y1="165" x2="390.67" y2="30"/><rect class="cls-1" x="405.67" y="105" width="284.63" height="60"/><text class="cls-6" transform="translate(479.02 141.64)"><tspan x="0" y="0">A</tspan><tspan class="cls-5" x="12.27" y="0">A</tspan><tspan class="cls-4" x="24.5" y="0">r</tspan><tspan x="30.75" y="0">ch32 </tspan><tspan class="cls-8" x="74.86" y="0">R</tspan><tspan x="86.08" y="0">ich OS</tspan></text><text class="cls-6" transform="translate(273.01 55.84)"><tspan x="0" y="0">A</tspan><tspan class="cls-5" x="12.27" y="0">A</tspan><tspan class="cls-4" x="24.5" y="0">r</tspan><tspan x="30.75" y="0">ch64 </tspan><tspan class="cls-5" x="18.92" y="21.6">A</tspan><tspan x="31.15" y="21.6">pp</tspan></text><rect class="cls-1" x="405.67" y="30" width="134.7" height="60"/><text class="cls-6" transform="translate(437.86 55.84)"><tspan x="0" y="0">A</tspan><tspan class="cls-5" x="12.27" y="0">A</tspan><tspan class="cls-4" x="24.5" y="0">r</tspan><tspan x="30.75" y="0">ch32 </tspan><tspan class="cls-5" x="18.92" y="21.6">A</tspan><tspan x="31.15" y="21.6">pp</tspan></text><rect class="cls-1" x="555.67" y="30" width="135" height="60"/><text class="cls-6" transform="translate(588.01 55.84)"><tspan x="0" y="0">A</tspan><tspan class="cls-5" x="12.27" y="0">A</tspan><tspan class="cls-4" x="24.5" y="0">r</tspan><tspan x="30.75" y="0">ch64 </tspan><tspan class="cls-5" x="18.92" y="21.6">A</tspan><tspan x="31.15" y="21.6">pp</tspan></text><line class="cls-3" x1="555.67" y1="30" x2="690.67" y2="90"/><line class="cls-3" x1="555.67" y1="90" x2="690.67" y2="30"/></svg>